<svg xmlns="http://www.w3.org/2000/svg" viewBox="0 0 209.67 38.67"><defs><style>.cls-1{fill:none;}.cls-2{fill:#fff;}</style></defs><title>ontour-logo</title><g id="ui"><path class="cls-1" d="M19.55,12.56c-3.82,0-6.22,3.17-6.22,6.69v.09c0,3.56,2.44,6.77,6.3,6.77s6.22-3.17,6.22-6.69v-.09C25.85,15.77,23.41,12.56,19.55,12.56Z"/><path class="cls-1" d="M192.4,12.73H188V18.6h4.33c2.4,0,3.86-1.07,3.86-2.92V15.6C196.22,13.67,194.72,12.73,192.4,12.73Z"/><path class="cls-2" d="M19.64,3.68c-9.26,0-16.42,6.95-16.42,15.65v.09C3.22,28.12,10.29,35,19.55,35S36,28,36,19.33v-.09C36,10.54,28.9,3.68,19.64,3.68Zm6.22,15.74c0,3.52-2.4,6.69-6.22,6.69s-6.3-3.22-6.3-6.77v-.09c0-3.52,2.4-6.69,6.22-6.69s6.3,3.22,6.3,6.77Z"/><polygon class="cls-2" points="58.79 17.58 48.11 4.33 38.72 4.33 38.72 34.34 48.67 34.34 48.67 20.49 59.82 34.34 68.73 34.34 68.73 4.33 58.79 4.33 58.79 17.58"/><polygon class="cls-2" points="109.6 4.33 81.9 4.33 81.9 12.82 90.73 12.82 90.73 34.34 100.77 34.34 100.77 12.82 109.6 12.82 109.6 4.33"/><path class="cls-2" d="M200.29,24.14A9.71,9.71,0,0,0,206.21,15v-.08a9.43,9.43,0,0,0-2.74-7.12c-2.1-2.1-5.49-3.43-10.81-3.43H178v30h10V25.76h2.14l5.66,8.58h11.45Zm-4.07-8.45c0,1.84-1.46,2.92-3.86,2.92H188V12.73h4.37c2.32,0,3.82.94,3.82,2.87Z"/><path class="cls-2" d="M145.15,9.71l1.14.68-8.1-4.83-.12,0-.78.61c.46.6,3,3.6,4.62,5.59l.37.45-2.74,1.65a1.4,1.4,0,0,1-1.41.18c-.67-.22-2.34-.92-2.41-.95a.63.63,0,0,0-.15,0l-.25.19c.36.41,1.47,1.57,2.17,2.29l.12.13.33,3.47c.28,0,.4,0,.52-.38.27-.74.94-2.45.94-2.45a1.1,1.1,0,0,1,.57-.58l.09,0,.19-.06.19-.06.72-.24.24-.08.33-.11.14,0h0l.93-.31.56-.18,1.27,7.82.38-.07.17,0c0-.47-.05-.95-.05-1.45Z"/><path class="cls-2" d="M115.35,24.95a66.51,66.51,0,0,0,19.27-5.68V17.1l-1.44-1.31c-2.23,1.12-15.27,7.49-22.27,7.22,0,0-2.07.14-2.82-1.17a2.06,2.06,0,0,1-.27-1,3.29,3.29,0,0,0-.59,2C107.49,24.46,111.14,25.41,115.35,24.95Z"/><path class="cls-2" d="M110.89,22a13.56,13.56,0,0,0,1.95-.08,14.18,14.18,0,0,1-.23-2.52v-.08a14,14,0,0,1,1.26-5.82,19.26,19.26,0,0,0,1,2.56c.3.41,2.66,2.19,2.78,2.37a1.55,1.55,0,0,0,.47.36L120.6,18v-.77a7.41,7.41,0,0,0,3.64-1.18,31,31,0,0,0,2.89-2.37l-1-1.3.84-1.78L126,10l-.88-2.55s-.45-.89,1.31-1.18a10,10,0,0,1,4,.41s-.83.65-.65,1.07.47.95.65,1.48.12,1.36.47,1.6,1.78,1.3,1.78,1.3a8.59,8.59,0,0,1,2.84-1.73l1.37-.45A13.63,13.63,0,0,1,139,13l0,0,1.71-1c-.06-.12-.11-.24-.18-.35-1-1.25-3-3.61-3.76-4.54a16,16,0,0,0-10.2-3.59,15.73,15.73,0,0,0-16,15.84v.08a16.28,16.28,0,0,0,.23,2.6Z"/><path class="cls-2" d="M140.38,16.64a2.68,2.68,0,0,0-.14.32,13.38,13.38,0,0,1,.07,4.21c-1,1.26-4.08.41-4.08.41l-3.36,1.32v.79L134.27,25l-1.07.69v.64a22.7,22.7,0,0,0,1.07,3.45A13.66,13.66,0,0,1,133,31.6a14.23,14.23,0,0,1-6.55,1.57c-.36,0-.71,0-1.06-.05l1.7-1.89-.28-1.07,2.12-1a4.11,4.11,0,0,1,1.23-2.43l-.3-1.17-2-.79L122,26.42l1.24,1.08-.65,1,.87,4.34a13.9,13.9,0,0,1-3.52-1.26,29.32,29.32,0,0,1-3.31-2.42A13.52,13.52,0,0,1,114.26,26l-1,0c-.42,0-.83,0-1.24,0a16,16,0,0,0,30.42-6.77,16.28,16.28,0,0,0-.31-3.19Z"/><path class="cls-2" d="M145.41,22.27l.09-.06,0,0a.46.46,0,0,0,.06-.1,1.69,1.69,0,0,0,.08-.23c.21-.72,1.22-6.5,1.58-8.67l0-.26.24-.11a13.47,13.47,0,0,0,3.19-1.9c.88-.95,1-1.16.77-1.48s-1-.29-1.39-.23a20.47,20.47,0,0,0-3.59,1.08l-.25.14-1.14-.68V20.88c0,.5,0,1,.05,1.45h0l.16,0Z"/><path class="cls-2" d="M164.62,21c0,3.64-1.93,5.1-4.63,5.1s-4.63-1.59-4.63-5.32V4.33H145.15V8.55l1.18.7A22.65,22.65,0,0,1,150,8.19c.62-.08,1.87-.23,2.41.74s-.15,1.82-.91,2.64a13,13,0,0,1-3.27,2c-.24,1.39-1.32,7.68-1.57,8.52a1.45,1.45,0,0,1-1.36,1.21c.9,8.17,6.42,11.61,14.6,11.61,9,0,14.92-4,14.92-14.28V4.33H164.62Z"/></g></svg>